<svg xmlns="http://www.w3.org/2000/svg" width="125" height="125" viewBox="0 0 125 125" version="1.1"><path d="M 0.044 11.750 C 0.085 22.862, 0.161 23.294, 1.442 19.703 C 4.672 10.649, 12.577 3.005, 20.683 1.099 C 23.664 0.398, 21.817 0.179, 12.250 0.100 L 0 0 0.044 11.750 M 104.635 1.089 C 113.106 3.544, 123.101 14.106, 124.295 21.863 C 124.518 23.313, 124.768 18.988, 124.850 12.250 L 125 0 113.250 0.090 C 104.455 0.158, 102.288 0.409, 104.635 1.089 M 19.607 38.095 C 16.613 40.449, 13 46.902, 13 49.893 C 13 51.002, 13.896 52.150, 15.048 52.515 C 17.308 53.232, 20 51.527, 20 49.378 C 20 48.620, 20.450 48, 21 48 C 22.614 48, 22.186 51.380, 18.948 64.207 C 15.280 78.734, 15.329 82.365, 19.199 82.811 C 21.446 83.071, 22.341 82.402, 24.554 78.811 C 28.606 72.236, 32.372 66.636, 33.661 65.268 C 34.299 64.590, 35.025 63.465, 35.274 62.768 C 35.523 62.071, 36.059 61.809, 36.466 62.186 C 36.872 62.563, 36.700 66.666, 36.083 71.303 C 34.804 80.914, 35.247 83, 38.564 83 C 40.934 83, 47.864 75.260, 54.477 65.230 C 56.026 62.881, 57.397 61.081, 57.523 61.230 C 57.650 61.378, 57.447 65.100, 57.072 69.500 C 56.209 79.614, 56.635 81.870, 59.546 82.601 C 63.529 83.601, 65.723 82.119, 71.192 74.735 L 76.500 67.567 77.039 72.222 C 77.717 78.079, 80.240 81, 84.619 81 L 87.929 81 86.109 85.250 C 83.081 92.322, 80.755 103.140, 81.335 107.461 C 81.940 111.970, 85.124 115.268, 88.419 114.797 C 90.352 114.521, 90.507 113.825, 90.596 105 C 90.721 92.504, 94.017 82.685, 106.001 59.105 C 110.951 49.367, 115 40.683, 115 39.807 C 115 37.743, 112.345 36.745, 110.081 37.957 C 109.105 38.479, 104.600 45.565, 100.069 53.703 C 91.695 68.745, 89.975 71, 86.876 71 C 82.804 71, 83.760 62.474, 89.286 49.500 C 90.926 45.650, 92.320 41.150, 92.384 39.500 C 92.481 36.981, 92.085 36.452, 89.914 36.199 C 86.750 35.832, 85.952 36.759, 80.927 46.644 C 76.244 55.855, 65.881 71.962, 64.622 71.984 C 63.557 72.003, 64.297 66.681, 67.151 53.784 C 69.507 43.138, 69.047 41, 64.401 41 C 61.836 41, 57.223 46.239, 49.202 58.262 C 46.721 61.981, 44.512 64.845, 44.293 64.626 C 44.074 64.407, 45.541 58.768, 47.553 52.094 C 50.564 42.105, 50.987 39.689, 49.943 38.431 C 47.368 35.329, 44.628 37.375, 36.108 48.757 C 31.473 54.949, 27.482 59.815, 27.237 59.570 C 26.993 59.326, 27.558 54.875, 28.493 49.679 C 29.799 42.427, 29.931 39.740, 29.062 38.116 C 27.580 35.347, 23.113 35.337, 19.607 38.095 M 124 103.040 C 124 105.664, 120.838 111.851, 117.422 115.910 C 114.823 118.999, 109.080 122.496, 104 124.082 C 102.555 124.534, 106.563 124.787, 113.500 124.682 L 125.500 124.500 125.782 112.750 C 125.964 105.160, 125.698 101, 125.032 101 C 124.464 101, 124 101.918, 124 103.040 M 1.009 115.250 L 1 125 12.750 124.893 C 22.321 124.806, 23.758 124.614, 20.500 123.862 C 14.654 122.512, 7.518 116.833, 4.034 110.758 L 1.019 105.500 1.009 115.250" stroke="none" fill="#f9f2ed" fill-rule="evenodd"/><path d="M 20.500 1.118 C 14.697 2.429, 7.223 8.568, 3.599 15 L 0.500 20.500 0.500 62.500 L 0.500 104.500 3.599 110 C 7.545 117.004, 14.725 122.594, 21.612 124.023 C 24.888 124.703, 40.813 124.982, 65.623 124.794 L 104.500 124.500 109.620 121.799 C 116.862 117.979, 124 108.667, 124 103.040 C 124 101.918, 124.450 101, 125 101 C 125.650 101, 125.995 87.094, 125.985 61.250 C 125.975 35.217, 125.635 22.018, 125 23 C 124.234 24.185, 124.027 23.966, 124.015 21.956 C 123.973 14.874, 113.235 3.548, 104.177 1.033 C 99.603 -0.238, 26.169 -0.163, 20.500 1.118 M 0.456 62.500 C 0.456 84.500, 0.588 93.358, 0.749 82.183 C 0.910 71.009, 0.910 53.009, 0.749 42.183 C 0.587 31.358, 0.455 40.500, 0.456 62.500 M 19.607 38.095 C 16.613 40.449, 13 46.902, 13 49.893 C 13 51.002, 13.896 52.150, 15.048 52.515 C 17.308 53.232, 20 51.527, 20 49.378 C 20 48.620, 20.450 48, 21 48 C 22.614 48, 22.186 51.380, 18.948 64.207 C 15.280 78.734, 15.329 82.365, 19.199 82.811 C 21.446 83.071, 22.341 82.402, 24.554 78.811 C 28.606 72.236, 32.372 66.636, 33.661 65.268 C 34.299 64.590, 35.025 63.465, 35.274 62.768 C 35.523 62.071, 36.059 61.809, 36.466 62.186 C 36.872 62.563, 36.700 66.666, 36.083 71.303 C 34.804 80.914, 35.247 83, 38.564 83 C 40.934 83, 47.864 75.260, 54.477 65.230 C 56.026 62.881, 57.397 61.081, 57.523 61.230 C 57.650 61.378, 57.447 65.100, 57.072 69.500 C 56.209 79.614, 56.635 81.870, 59.546 82.601 C 63.529 83.601, 65.723 82.119, 71.192 74.735 L 76.500 67.567 77.039 72.222 C 77.717 78.079, 80.240 81, 84.619 81 L 87.929 81 86.109 85.250 C 83.081 92.322, 80.755 103.140, 81.335 107.461 C 81.940 111.970, 85.124 115.268, 88.419 114.797 C 90.352 114.521, 90.507 113.825, 90.596 105 C 90.721 92.504, 94.017 82.685, 106.001 59.105 C 110.951 49.367, 115 40.683, 115 39.807 C 115 37.743, 112.345 36.745, 110.081 37.957 C 109.105 38.479, 104.600 45.565, 100.069 53.703 C 91.695 68.745, 89.975 71, 86.876 71 C 82.804 71, 83.760 62.474, 89.286 49.500 C 90.926 45.650, 92.320 41.150, 92.384 39.500 C 92.481 36.981, 92.085 36.452, 89.914 36.199 C 86.750 35.832, 85.952 36.759, 80.927 46.644 C 76.244 55.855, 65.881 71.962, 64.622 71.984 C 63.557 72.003, 64.297 66.681, 67.151 53.784 C 69.507 43.138, 69.047 41, 64.401 41 C 61.836 41, 57.223 46.239, 49.202 58.262 C 46.721 61.981, 44.512 64.845, 44.293 64.626 C 44.074 64.407, 45.541 58.768, 47.553 52.094 C 50.564 42.105, 50.987 39.689, 49.943 38.431 C 47.368 35.329, 44.628 37.375, 36.108 48.757 C 31.473 54.949, 27.482 59.815, 27.237 59.570 C 26.993 59.326, 27.558 54.875, 28.493 49.679 C 29.799 42.427, 29.931 39.740, 29.062 38.116 C 27.580 35.347, 23.113 35.337, 19.607 38.095" stroke="none" fill="#cc3926" fill-rule="evenodd"/></svg>